# xmcd
# Copyright (C) 1995-1998 Ti Kan
#
# Track frame offsets:
#       183
#       19113
#       34930
#       61205
#       85353
#       103110
#       121970
#       137723
#       160845
#       182270
#       202028
#
# Disc length: 2892 seconds
#
# Revision: 0
# Processed by: cddbd v1.5.2PL0 Copyright (c) Steve Scherf et al.
# Submitted via: CD-Import v1.0
#
DISCID=900b4a0b
DTITLE=Sarah Mclachlan - Solace
DYEAR=1900
DGENRE=
TTITLE0=Drawn To The Rhythm
TTITLE1=Into The Fire
TTITLE2=The Path Of Thorns (Terms)
TTITLE3=I Will Not Forget You
TTITLE4=Lost
TTITLE5=Back Door Man
TTITLE6=Shelter
TTITLE7=Black
TTITLE8=Home
TTITLE9=Mercy
TTITLE10=Wear Your Love Like Heaven
EXTD=
EXTT0=
EXTT1=
EXTT2=
EXTT3=
EXTT4=
EXTT5=
EXTT6=
EXTT7=
EXTT8=
EXTT9=
EXTT10=
PLAYORDER=
